<svg width="10" height="17" viewBox="0 0 10 17" fill="none" xmlns="http://www.w3.org/2000/svg">
<path d="M4.10444 0.386896C4.37259 -0.00939788 4.92169 -0.11883 5.33031 0.140762C8.25394 1.99863 10 5.12365 10 8.49976C10 11.8759 8.25394 15.0013 5.33031 16.8591C4.90669 17.1286 4.36198 16.9923 4.10444 16.613C3.83593 16.2178 3.95007 15.6858 4.35869 15.4266C6.78298 13.8864 8.2298 11.2972 8.2298 8.50012C8.2298 5.70304 6.78298 3.11385 4.35869 1.57365C3.95007 1.31406 3.83593 0.782481 4.10444 0.386896Z" fill="black"/>
<path d="M3.35049 2.96652C5.31531 4.18126 6.48813 6.24985 6.48813 8.49976C6.48813 10.75 5.31531 12.8183 3.35049 14.033C2.91151 14.305 2.37704 14.1357 2.13889 13.7688C1.87953 13.369 2.00062 12.8402 2.40997 12.5874C3.8641 11.6882 4.73219 10.1604 4.73219 8.49976C4.73219 6.83915 3.8641 5.31135 2.40997 4.41217C2.00062 4.15895 1.87953 3.6302 2.13889 3.23072C2.39826 2.83124 2.94114 2.71366 3.35049 2.96652Z" fill="black"/>
<path d="M0.108961 6.11208C0.343817 5.70092 0.878281 5.55324 1.3019 5.77741C2.33498 6.32776 2.97662 7.37038 2.97662 8.49941C2.97662 9.62844 2.33497 10.6714 1.30227 11.2221C0.879377 11.447 0.34455 11.3004 0.109327 10.8874C-0.124431 10.4763 0.0303096 9.95957 0.455026 9.73256C0.926934 9.48147 1.22032 9.00903 1.22032 8.49976C1.22032 7.99085 0.926935 7.51806 0.454661 7.26697C0.0299446 7.03996 -0.124798 6.52325 0.108961 6.11208Z" fill="black"/>
</svg>
