<svg width="134" height="134" viewBox="0 0 134 134" fill="none" xmlns="http://www.w3.org/2000/svg">
<rect width="134" height="134" rx="8" fill="black"/>
<path d="M23.2252 42.1295C21.1725 33.479 33.7478 29.1561 36.9067 37.6315C42.5891 52.8777 42.2167 75.6635 41.4852 91.761C41.273 96.4311 40.5358 109.361 32.6397 106.624C18.2922 101.65 30.4011 86.571 36.8001 81.0525C57.0664 63.575 81.493 46.2357 105.253 33.8732C112.98 29.8527 120.222 40.7238 113.07 46.0008C96.4359 58.2749 67.1614 61.8318 47.3708 76.3749C41.5824 80.6285 35.2163 85.6671 31.7219 92.1177C29.8 95.6655 33.2751 102.067 33.6487 101.56C39.2474 93.9572 25.5484 51.9201 23.2252 42.1295Z" fill="white"/>
</svg>
