<svg width="16" height="24" viewBox="0 0 16 24" fill="none" xmlns="http://www.w3.org/2000/svg">
<path d="M3.83624 14.3685L0.76036 21.3738L1.09664 23.2823C1.16924 23.6939 1.63734 23.8994 1.98947 23.6744L3.62169 22.6302L6.69757 15.6248C6.19536 15.5067 5.69594 15.3482 5.20683 15.1334C4.71772 14.9187 4.26307 14.6583 3.83624 14.3685ZM11.4885 0.826767C7.93288 -0.734433 3.78497 0.882347 2.22377 4.438C0.66257 7.99366 2.27935 12.1416 5.835 13.7028C9.39066 15.264 13.5386 13.6472 15.0998 10.0915C16.661 6.53588 15.0442 2.38797 11.4885 0.826767ZM9.99663 4.2246C8.32007 3.48846 6.35774 4.25334 5.6216 5.92991C5.49165 6.22588 5.14551 6.3608 4.84954 6.23084C4.55357 6.10089 4.41865 5.75475 4.5486 5.45878C5.54445 3.19072 8.20015 2.15595 10.4678 3.1516C10.7637 3.28155 10.8987 3.6277 10.7687 3.92367C10.6387 4.21963 10.2926 4.35455 9.99663 4.2246Z" fill="black"/>
</svg>
